<svg width="158" height="50" viewBox="0 0 158 50" fill="none" xmlns="http://www.w3.org/2000/svg">
<path d="M61.8 31V17H64.26V24.04L70.92 17H73.94L68.12 23.02L74.2 31H71.22L66.44 24.7L64.26 26.94V31H61.8ZM76.0122 31V20.44H81.4322C82.4855 20.44 83.3255 20.68 83.9522 21.16C84.5922 21.6267 84.9122 22.2667 84.9122 23.08C84.9122 24.1867 84.3455 24.9933 83.2122 25.5C84.6655 25.9133 85.3922 26.7933 85.3922 28.14C85.3922 29.0333 85.0389 29.7333 84.3322 30.24C83.6389 30.7467 82.6922 31 81.4922 31H76.0122ZM78.3922 29.08H81.1322C81.7055 29.08 82.1455 28.96 82.4522 28.72C82.7722 28.4667 82.9322 28.1333 82.9322 27.72C82.9322 27.32 82.7655 27.0067 82.4322 26.78C82.1122 26.5533 81.6389 26.44 81.0122 26.44H78.3922V29.08ZM78.3922 24.8H80.8722C81.3655 24.8 81.7522 24.68 82.0322 24.44C82.3122 24.2 82.4522 23.8867 82.4522 23.5C82.4522 23.14 82.3255 22.8533 82.0722 22.64C81.8189 22.4133 81.4322 22.3 80.9122 22.3H78.3922V24.8ZM96.6691 31H94.2691V29.7C93.4157 30.7133 92.2757 31.22 90.8491 31.22C89.7957 31.22 88.9024 30.9333 88.1691 30.36C87.4491 29.7733 87.0891 28.96 87.0891 27.92C87.0891 26.7867 87.4824 25.9267 88.2691 25.34C89.0557 24.7533 90.0891 24.46 91.3691 24.46C92.3957 24.46 93.3691 24.6067 94.2891 24.9V24.7C94.2891 23.9667 94.0624 23.4067 93.6091 23.02C93.1691 22.6333 92.5291 22.44 91.6891 22.44C90.7291 22.44 89.7224 22.66 88.6691 23.1L88.0091 21.16C89.3157 20.5733 90.6557 20.28 92.0291 20.28C93.5624 20.28 94.7157 20.6667 95.4891 21.44C96.2757 22.2133 96.6691 23.3133 96.6691 24.74V31ZM94.3291 27.18V26.58C93.6091 26.3 92.8024 26.16 91.9091 26.16C91.1491 26.16 90.5557 26.3067 90.1291 26.6C89.7024 26.8933 89.4891 27.3067 89.4891 27.84C89.4891 28.32 89.6824 28.7 90.0691 28.98C90.4557 29.26 90.9424 29.4 91.5291 29.4C92.3424 29.4 93.0091 29.1933 93.5291 28.78C94.0624 28.3667 94.3291 27.8333 94.3291 27.18ZM98.3273 33.54V28.92H99.4673C100.254 27.3467 100.647 24.9533 100.647 21.74V20.44H108.827V28.92H110.327L110.007 33.54H107.987V31H100.587L100.347 33.54H98.3273ZM101.947 28.92H106.407V22.52H102.927V23.92C102.927 25.88 102.601 27.5467 101.947 28.92ZM112.34 34.2V20.44H114.76V22.2C115.694 20.88 116.887 20.22 118.34 20.22C119.674 20.22 120.827 20.72 121.8 21.72C122.774 22.7067 123.26 24.0467 123.26 25.74C123.26 27.4067 122.774 28.74 121.8 29.74C120.827 30.7267 119.674 31.22 118.34 31.22C116.887 31.22 115.694 30.6 114.76 29.36V34.2H112.34ZM117.78 29.12C118.634 29.12 119.347 28.8067 119.92 28.18C120.507 27.5533 120.8 26.7267 120.8 25.7C120.8 24.7 120.507 23.8867 119.92 23.26C119.334 22.6333 118.62 22.32 117.78 22.32C116.94 22.32 116.214 22.64 115.6 23.28C115 23.92 114.7 24.74 114.7 25.74C114.7 26.7267 115 27.54 115.6 28.18C116.214 28.8067 116.94 29.12 117.78 29.12ZM134.599 31H132.199V29.7C131.345 30.7133 130.205 31.22 128.779 31.22C127.725 31.22 126.832 30.9333 126.099 30.36C125.379 29.7733 125.019 28.96 125.019 27.92C125.019 26.7867 125.412 25.9267 126.199 25.34C126.985 24.7533 128.019 24.46 129.299 24.46C130.325 24.46 131.299 24.6067 132.219 24.9V24.7C132.219 23.9667 131.992 23.4067 131.539 23.02C131.099 22.6333 130.459 22.44 129.619 22.44C128.659 22.44 127.652 22.66 126.599 23.1L125.939 21.16C127.245 20.5733 128.585 20.28 129.959 20.28C131.492 20.28 132.645 20.6667 133.419 21.44C134.205 22.2133 134.599 23.3133 134.599 24.74V31ZM132.259 27.18V26.58C131.539 26.3 130.732 26.16 129.839 26.16C129.079 26.16 128.485 26.3067 128.059 26.6C127.632 26.8933 127.419 27.3067 127.419 27.84C127.419 28.32 127.612 28.7 127.999 28.98C128.385 29.26 128.872 29.4 129.459 29.4C130.272 29.4 130.939 29.1933 131.459 28.78C131.992 28.3667 132.259 27.8333 132.259 27.18ZM139.737 31V22.52H136.337V20.44H145.577V22.52H142.177V31H139.737ZM156.357 31H153.957V29.7C153.103 30.7133 151.963 31.22 150.537 31.22C149.483 31.22 148.59 30.9333 147.857 30.36C147.137 29.7733 146.777 28.96 146.777 27.92C146.777 26.7867 147.17 25.9267 147.957 25.34C148.743 24.7533 149.777 24.46 151.057 24.46C152.083 24.46 153.057 24.6067 153.977 24.9V24.7C153.977 23.9667 153.75 23.4067 153.297 23.02C152.857 22.6333 152.217 22.44 151.377 22.44C150.417 22.44 149.41 22.66 148.357 23.1L147.697 21.16C149.003 20.5733 150.343 20.28 151.717 20.28C153.25 20.28 154.403 20.6667 155.177 21.44C155.963 22.2133 156.357 23.3133 156.357 24.74V31ZM154.017 27.18V26.58C153.297 26.3 152.49 26.16 151.597 26.16C150.837 26.16 150.243 26.3067 149.817 26.6C149.39 26.8933 149.177 27.3067 149.177 27.84C149.177 28.32 149.37 28.7 149.757 28.98C150.143 29.26 150.63 29.4 151.217 29.4C152.03 29.4 152.697 29.1933 153.217 28.78C153.75 28.3667 154.017 27.8333 154.017 27.18Z" fill="#757070"/>
<circle r="25" transform="matrix(1 0 0 -1 25 25)" fill="#F4C007"/>
<path d="M18.7317 32.24C16.5051 32.24 14.7184 31.42 13.3717 29.78L15.0917 28.18C16.1317 29.4067 17.3584 30.02 18.7717 30.02C19.4784 30.02 20.0584 29.8267 20.5117 29.44C20.9651 29.04 21.1917 28.5133 21.1917 27.86C21.1917 27.18 20.8984 26.6533 20.3117 26.28C19.7384 25.8933 18.9584 25.7 17.9717 25.7H16.8317L16.4317 24.16L20.2117 20.14H14.1517V18H23.4117V19.84L19.5117 23.84C20.7384 24.0133 21.7317 24.4267 22.4917 25.08C23.2517 25.72 23.6317 26.6333 23.6317 27.82C23.6317 29.1133 23.1717 30.1733 22.2517 31C21.3451 31.8267 20.1717 32.24 18.7317 32.24ZM31.095 32.24C28.8683 32.24 27.0817 31.42 25.735 29.78L27.455 28.18C28.495 29.4067 29.7217 30.02 31.135 30.02C31.8417 30.02 32.4217 29.8267 32.875 29.44C33.3283 29.04 33.555 28.5133 33.555 27.86C33.555 27.18 33.2617 26.6533 32.675 26.28C32.1017 25.8933 31.3217 25.7 30.335 25.7H29.195L28.795 24.16L32.575 20.14H26.515V18H35.775V19.84L31.875 23.84C33.1017 24.0133 34.095 24.4267 34.855 25.08C35.615 25.72 35.995 26.6333 35.995 27.82C35.995 29.1133 35.535 30.1733 34.615 31C33.7083 31.8267 32.535 32.24 31.095 32.24Z" fill="white"/>
</svg>
