<svg width="97" height="94" viewBox="0 0 97 94" fill="none" xmlns="http://www.w3.org/2000/svg">
<path d="M7.82239 9.09677H54.7579V19.7097C54.7579 20.5484 55.4569 21.2258 56.3224 21.2258H67.274V33.3548H70.403V19.7097C70.403 19.2899 70.2266 18.9109 69.9432 18.6362L57.4316 6.51166C57.1467 6.23552 56.7555 6.06452 56.3224 6.06452H14.0805V3.03226H73.5321V36.3871H76.6611V1.51613C76.6611 0.677372 75.9621 0 75.0966 0L12.5159 0C11.6504 0 10.9514 0.677372 10.9514 1.51613V6.06452H6.25788C5.39235 6.06452 4.69336 6.74189 4.69336 7.58065V92.4839C4.69336 93.3226 5.39235 94 6.25788 94H59.4514V90.9677H7.82239V9.09677ZM57.8869 11.2407L65.0617 18.1935H57.8869V11.2407Z" fill="black"/>
<path d="M90.7421 45.4838H88.3861C81.4 45.4838 74.8295 42.5019 70.3583 37.3028L70.042 36.9341C69.4492 36.2412 68.23 36.2412 67.6372 36.9341L67.3209 37.3013C62.8481 42.5019 56.2776 45.4838 49.2916 45.4838H46.9356C46.0701 45.4838 45.3711 46.1612 45.3711 46.9999V71.5549C45.3711 77.5254 48.6942 83.0746 54.0432 86.0358L68.0627 93.8001C68.3026 93.9333 68.5715 93.9999 68.8388 93.9999C69.1062 93.9999 69.3751 93.9333 69.615 93.8001L83.6345 86.0358C88.9835 83.0746 92.3066 77.5254 92.3066 71.5549V46.9999C92.3066 46.1612 91.6076 45.4838 90.7421 45.4838ZM89.1775 71.5549C89.1775 76.4401 86.4603 80.9796 82.0822 83.4018L68.8388 90.7389L55.5954 83.4041C51.2174 80.9796 48.5001 76.4401 48.5001 71.5549V48.5161H49.2916C56.7574 48.5161 63.8076 45.5097 68.8388 40.221C73.8685 45.5097 80.9203 48.5161 88.3861 48.5161H89.1775V71.5549Z" fill="black"/>
<path d="M68.8386 50.0322C59.3499 50.0322 51.6289 57.5144 51.6289 66.7096C51.6289 75.9049 59.3499 83.3871 68.8386 83.3871C78.3273 83.3871 86.0483 75.9049 86.0483 66.7096C86.0483 57.5144 78.3273 50.0322 68.8386 50.0322ZM68.8386 80.3548C61.0741 80.3548 54.7579 74.234 54.7579 66.7096C54.7579 59.1853 61.0741 53.0645 68.8386 53.0645C76.6031 53.0645 82.9192 59.1853 82.9192 66.7096C82.9192 74.234 76.6031 80.3548 68.8386 80.3548Z" fill="black"/>
<path d="M68.0924 71.4233L65.2514 68.6701L63.0391 70.814L67.7326 75.3624C68.0282 75.6504 68.4285 75.8066 68.8388 75.8066C68.9656 75.8066 69.0939 75.7918 69.2207 75.7614C69.7555 75.6304 70.1779 75.2365 70.3376 74.7257L75.0311 59.5644L72.0335 58.6938L68.0924 71.4233Z" fill="black"/>
<path d="M10.9521 24.2581H51.6296V27.2903H10.9521V24.2581Z" fill="black"/>
<path d="M10.9521 30.3226H51.6296V33.3549H10.9521V30.3226Z" fill="black"/>
<path d="M10.9521 36.3871H51.6296V39.4193H10.9521V36.3871Z" fill="black"/>
<path d="M10.9521 42.4517H42.2425V45.4839H10.9521V42.4517Z" fill="black"/>
<path d="M10.9521 48.5161H42.2425V51.5484H10.9521V48.5161Z" fill="black"/>
<path d="M10.9521 54.5806H42.2425V57.6128H10.9521V54.5806Z" fill="black"/>
<path d="M10.9521 72.7742H42.2425V75.8064H10.9521V72.7742Z" fill="black"/>
<path d="M10.9521 78.8387H42.2425V81.871H10.9521V78.8387Z" fill="black"/>
<path d="M10.9521 84.9032H42.2425V87.9354H10.9521V84.9032Z" fill="black"/>
<path d="M12.5166 12.129H15.6456V15.1613H12.5166V12.129Z" fill="black"/>
<path d="M18.7734 12.129H21.9025V15.1613H18.7734V12.129Z" fill="black"/>
<path d="M25.0322 12.129H28.1613V15.1613H25.0322V12.129Z" fill="black"/>
<path d="M31.29 12.129H51.6287V15.1613H31.29V12.129Z" fill="black"/>
</svg>
