<svg width="105" height="105" viewBox="0 0 105 105" fill="none" xmlns="http://www.w3.org/2000/svg">
<path d="M61.0045 93.6685C60.6282 93.6684 60.2674 93.5189 60.0014 93.2528L17.1387 50.3901C16.9803 50.2319 16.8617 50.0385 16.7924 49.8256C16.7231 49.6128 16.7051 49.3866 16.7399 49.1655L21.6863 17.8429C21.733 17.5466 21.8725 17.2727 22.0846 17.0606C22.2967 16.8485 22.5705 16.7091 22.8668 16.6624L54.188 11.716C54.4091 11.6812 54.6353 11.6992 54.8481 11.7685C55.061 11.8377 55.2544 11.9564 55.4126 12.1147L98.2753 54.9774C98.5413 55.2435 98.6907 55.6044 98.6907 55.9806C98.6907 56.3568 98.5413 56.7177 98.2753 56.9838L62.0063 93.2528C61.7406 93.5185 61.3803 93.668 61.0045 93.6685ZM19.6558 48.8931L61.0045 90.2432L95.2657 55.9806L53.9184 14.6333L24.3283 19.3044L19.6558 48.8931Z" fill="black"/>
<path d="M36.2758 38.4967C34.6001 38.4956 32.9766 37.9135 31.6819 36.8496C30.3872 35.7857 29.5014 34.3058 29.1755 32.6621C28.8495 31.0183 29.1036 29.3124 29.8943 27.835C30.6851 26.3576 31.9636 25.2 33.5121 24.5595C35.0606 23.919 36.7833 23.8352 38.3866 24.3224C39.99 24.8096 41.3748 25.8376 42.3052 27.2313C43.2356 28.625 43.654 30.2982 43.4891 31.9658C43.3243 33.6334 42.5863 35.1923 41.401 36.3768C40.7284 37.0503 39.9294 37.5843 39.0499 37.9481C38.1704 38.3119 37.2276 38.4983 36.2758 38.4967ZM36.2758 26.8431C35.2557 26.8436 34.2673 27.1978 33.479 27.8453C32.6907 28.4928 32.1513 29.3935 31.9526 30.3941C31.7539 31.3947 31.9082 32.4332 32.3893 33.3328C32.8704 34.2323 33.6484 34.9373 34.5909 35.3276C35.5334 35.7179 36.5821 35.7693 37.5583 35.4732C38.5345 35.1771 39.3778 34.5517 39.9447 33.7035C40.5115 32.8554 40.7668 31.837 40.667 30.8218C40.5672 29.8065 40.1186 28.8573 39.3975 28.1357C38.9887 27.7241 38.5023 27.3978 37.9664 27.1757C37.4305 26.9535 36.8559 26.84 36.2758 26.8417V26.8431Z" fill="black"/>
<path d="M8.2396 50.2624L6.44183 46.4058C6.34715 46.203 6.30178 45.9807 6.30942 45.757C6.31707 45.5334 6.37751 45.3147 6.48582 45.1188L21.8513 17.3776L24.3344 18.7525L9.31798 45.8609L10.8121 49.062L8.2396 50.2624Z" fill="black"/>
<path d="M33.3447 102.162C33.0748 102.162 32.8104 102.085 32.5827 101.94C32.355 101.795 32.1734 101.588 32.0592 101.343L10.8066 55.7635L13.3791 54.5631L34.0315 98.8575L57.4011 87.9602L58.6015 90.527L33.9464 102.02C33.7587 102.111 33.5533 102.16 33.3447 102.162Z" fill="black"/>
<path d="M32.8108 33.9122C31.9351 33.9042 31.063 33.7971 30.2114 33.5929L30.8456 30.8275C32.0148 31.0942 34.1446 31.3766 35.2726 30.25C36.378 29.1446 36.3737 26.8318 35.2585 23.906C33.6179 20.0268 31.2039 16.5226 28.1639 13.6075C21.1658 6.60937 13.776 4.24261 11.5214 6.49727C9.2667 8.75194 11.6335 16.1459 18.6316 23.1398C19.1045 23.6071 19.5775 24.0573 20.0505 24.4906L18.1463 26.5948C17.6345 26.1313 17.1275 25.6484 16.6252 25.1461C8.70907 17.2328 5.65271 8.3518 9.51359 4.49092C13.3745 0.630044 22.2555 3.68639 30.1702 11.6011C33.493 14.7992 36.127 18.6427 37.9104 22.8957C39.4712 26.9723 39.2414 30.2968 37.2804 32.2606C36.686 32.8242 35.9834 33.2611 35.2151 33.545C34.4468 33.829 33.6288 33.9539 32.8108 33.9122Z" fill="black"/>
</svg>
