<svg width="105" height="105" viewBox="0 0 105 105" fill="none" xmlns="http://www.w3.org/2000/svg">
<g clip-path="url(#clip0)">
<path d="M104.798 57.3502C103.855 47.8677 99.6185 38.928 92.8684 32.1777C87.0999 26.4094 80.0393 22.7026 72.6101 21.0543V15.8436C75.6445 15.0887 77.8999 12.3421 77.8999 9.07738C77.8999 5.23252 74.772 2.10461 70.9272 2.10461H56.1613C52.3165 2.10461 49.1886 5.23252 49.1886 9.07738C49.1886 12.3419 51.444 15.0885 54.4782 15.8436V21.0689C47.0717 22.7241 40.0345 26.4258 34.2824 32.1779C33.0236 33.4367 31.8629 34.7573 30.8003 36.1297C30.7489 36.1258 30.6974 36.1219 30.6449 36.1219H16.0306C14.8981 36.1219 13.9798 37.04 13.9798 38.1727C13.9798 39.3053 14.8981 40.2235 16.0306 40.2235H28.0098C26.5061 42.7409 25.2937 45.3846 24.3708 48.106H2.05081C0.918354 48.106 0 49.0242 0 50.1568C0 51.2895 0.918354 52.2076 2.05081 52.2076H23.2119C22.6209 54.8021 22.2817 57.4425 22.1941 60.0903H13.1252C11.9927 60.0903 11.0744 61.0085 11.0744 62.1412C11.0744 63.2738 11.9927 64.192 13.1252 64.192H22.2595C22.4326 66.8465 22.8594 69.4872 23.5401 72.0747H10.2541C9.12161 72.0747 8.20325 72.9928 8.20325 74.1255C8.20325 75.2582 9.12161 76.1763 10.2541 76.1763H24.8489C26.8607 81.4984 30.0048 86.4866 34.2824 90.7642C41.039 97.5208 49.988 101.758 59.4804 102.696C60.8351 102.83 62.1909 102.896 63.5449 102.896C71.5475 102.896 79.4485 100.58 86.1526 96.2142C87.1017 95.5961 87.3702 94.3256 86.7521 93.3765C86.134 92.4274 84.8635 92.1589 83.9144 92.777C69.2393 102.333 49.5858 100.267 37.1827 87.8639C22.6297 73.3109 22.6297 49.6316 37.1827 35.0784C51.7355 20.5256 75.4148 20.5256 89.9679 35.0784C102.355 47.4653 104.432 67.1021 94.9075 81.7699C94.2906 82.7198 94.5607 83.9901 95.5105 84.6068C96.4608 85.2237 97.7307 84.9536 98.3474 84.0036C103.436 76.1665 105.727 66.7009 104.798 57.3502ZM53.2902 9.07758C53.2902 7.49436 54.5781 6.20645 56.1613 6.20645H70.9272C72.5104 6.20645 73.7983 7.49436 73.7983 9.07758C73.7983 10.6608 72.5104 11.9487 70.9272 11.9487H70.5593H56.529H56.1613C54.5781 11.9487 53.2902 10.6606 53.2902 9.07758ZM58.5798 20.3638V16.0504H68.5084V20.3564C65.2116 19.9643 61.8761 19.9668 58.5798 20.3638Z" fill="black"/>
<path d="M91.4199 87.2622C90.8785 87.2622 90.3515 87.4816 89.9702 87.8631C89.5867 88.2445 89.3691 88.7736 89.3691 89.313C89.3691 89.8523 89.5867 90.3814 89.9702 90.7629C90.3515 91.1464 90.8787 91.3638 91.4199 91.3638C91.9593 91.3638 92.4863 91.1464 92.8698 90.7629C93.2513 90.3814 93.4707 89.8523 93.4707 89.313C93.4707 88.7736 93.2515 88.2445 92.8698 87.8631C92.4863 87.4816 91.9591 87.2622 91.4199 87.2622Z" fill="black"/>
<path d="M63.5748 29.6566C46.0326 29.6566 31.7607 43.9282 31.7607 61.4707C31.7607 79.0131 46.0326 93.2847 63.5748 93.2847C81.117 93.2847 95.3889 79.0131 95.3889 61.4707C95.3889 43.9282 81.117 29.6566 63.5748 29.6566ZM63.5748 89.1831C48.294 89.1831 35.8624 76.7513 35.8624 61.4707C35.8624 46.1901 48.294 33.7582 63.5748 33.7582C78.8556 33.7582 91.2872 46.1901 91.2872 61.4707C91.2872 76.7513 78.8556 89.1831 63.5748 89.1831Z" fill="black"/>
<path d="M76.5476 45.5979L66.3899 55.7554C65.5405 55.3354 64.585 55.0981 63.575 55.0981C62.5647 55.0981 61.6095 55.3354 60.76 55.7554L56.214 51.2094C55.4129 50.4085 54.1148 50.4085 53.3135 51.2094C52.5127 52.0102 52.5127 53.3088 53.3135 54.1096L57.8596 58.6557C57.4393 59.5051 57.2023 60.4606 57.2023 61.4706C57.2023 64.9845 60.0609 67.8433 63.575 67.8433C67.089 67.8433 69.9477 64.9845 69.9477 61.4706C69.9477 60.4606 69.7104 59.5051 69.2904 58.6557L79.1499 48.7962L79.4478 48.4982C80.2487 47.6974 80.2487 46.3988 79.4478 45.5979C78.647 44.7971 77.3488 44.7971 76.5476 45.5979ZM63.575 63.7419C62.3227 63.7419 61.3039 62.7231 61.3039 61.4708C61.3039 60.2186 62.3227 59.1998 63.575 59.1998C64.8272 59.1998 65.846 60.2186 65.846 61.4708C65.846 62.7231 64.8272 63.7419 63.575 63.7419Z" fill="black"/>
<path d="M85.5026 59.4449H83.6025C82.4701 59.4449 81.5518 60.3631 81.5518 61.4957C81.5518 62.6284 82.4701 63.5465 83.6025 63.5465H85.5026C86.635 63.5465 87.5534 62.6284 87.5534 61.4957C87.5534 60.3631 86.635 59.4449 85.5026 59.4449Z" fill="black"/>
<path d="M43.5483 59.3948H41.6484C40.516 59.3948 39.5977 60.3129 39.5977 61.4456C39.5977 62.5782 40.516 63.4963 41.6484 63.4963H43.5483C44.6807 63.4963 45.5991 62.5782 45.5991 61.4456C45.5991 60.3129 44.6807 59.3948 43.5483 59.3948Z" fill="black"/>
<path d="M63.6006 43.4943C64.733 43.4943 65.6514 42.5762 65.6514 41.4435V39.5437C65.6514 38.4111 64.733 37.4929 63.6006 37.4929C62.4681 37.4929 61.5498 38.4111 61.5498 39.5437V41.4435C61.5498 42.5762 62.4681 43.4943 63.6006 43.4943Z" fill="black"/>
<path d="M63.5498 79.4473C62.4174 79.4473 61.499 80.3654 61.499 81.498V83.3979C61.499 84.5305 62.4174 85.4487 63.5498 85.4487C64.6823 85.4487 65.6006 84.5305 65.6006 83.3979V81.498C65.6006 80.3654 64.6823 79.4473 63.5498 79.4473Z" fill="black"/>
<path d="M2.05078 72.0737C1.51143 72.0737 0.982324 72.2932 0.600879 72.6746C0.219434 73.0561 0 73.5852 0 74.1245C0 74.6659 0.219229 75.193 0.600879 75.5744C0.982529 75.9559 1.51143 76.1753 2.05078 76.1753C2.59014 76.1753 3.11924 75.9559 3.50048 75.5744C3.88192 75.193 4.10156 74.6639 4.10156 74.1245C4.10156 73.5852 3.88213 73.0561 3.50048 72.6746C3.11924 72.2932 2.59014 72.0737 2.05078 72.0737Z" fill="black"/>
</g>
<defs>
<clipPath id="clip0">
<rect width="105" height="105" fill="white"/>
</clipPath>
</defs>
</svg>
