<?xml version="1.0" standalone="no"?>
<!DOCTYPE svg PUBLIC "-//W3C//DTD SVG 20010904//EN"
 "http://www.w3.org/TR/2001/REC-SVG-20010904/DTD/svg10.dtd">
<svg version="1.0" xmlns="http://www.w3.org/2000/svg"
 width="700.000000pt" height="700.000000pt" viewBox="0 0 700.000000 700.000000"
 preserveAspectRatio="xMidYMid meet">
<metadata>
Created by potrace 1.11, written by Peter Selinger 2001-2013
</metadata>
<g transform="translate(0.000000,700.000000) scale(0.100000,-0.100000)"
fill="#000000" stroke="none">
<path d="M3280 6994 c-19 -2 -84 -9 -145 -15 -955 -93 -1835 -591 -2433 -1377
-328 -430 -561 -971 -651 -1514 -38 -226 -45 -320 -45 -588 0 -268 7 -362 45
-588 163 -977 753 -1855 1601 -2383 438 -272 907 -437 1443 -506 196 -25 614
-25 810 0 430 56 786 162 1155 346 729 364 1312 973 1639 1714 144 325 238
675 283 1052 16 139 16 595 0 730 -95 786 -401 1459 -915 2010 -582 625 -1309
996 -2160 1101 -115 14 -550 27 -627 18z m0 -2641 l0 -128 -271 -278 c-149
-153 -270 -279 -268 -281 2 -2 38 -11 79 -20 274 -65 445 -220 480 -436 50
-316 -127 -594 -440 -692 -67 -21 -93 -23 -255 -22 -166 0 -187 3 -268 27
-109 34 -212 85 -298 148 -65 48 -159 140 -159 156 0 8 40 48 177 177 l52 50
64 -61 c145 -140 298 -201 479 -191 192 10 310 120 312 291 1 115 -49 193
-157 248 -75 39 -139 51 -297 58 l-154 6 -28 104 c-26 100 -27 106 -10 125 9
11 127 137 262 281 l245 260 -423 3 -422 2 0 150 0 150 650 0 650 0 0 -127z
m1730 -1 l0 -128 -271 -277 c-149 -153 -270 -279 -268 -281 2 -1 45 -12 94
-25 161 -39 304 -123 379 -221 81 -106 114 -282 82 -439 -25 -123 -73 -211
-165 -301 -84 -83 -156 -126 -271 -162 -67 -21 -93 -23 -250 -22 -148 0 -187
4 -255 22 -109 30 -236 92 -323 159 -68 52 -152 137 -152 153 0 4 52 56 115
115 l115 107 75 -70 c128 -119 276 -182 434 -182 192 0 316 91 343 252 21 121
-33 224 -149 285 -87 46 -133 56 -302 62 l-154 6 -28 105 -28 105 23 25 c12
14 129 138 259 277 130 138 237 254 237 257 0 3 -189 6 -420 6 l-420 0 0 150
0 150 650 0 650 0 0 -128z"/>
</g>
</svg>
