<svg width="50" height="50" viewBox="0 0 50 50" fill="none" xmlns="http://www.w3.org/2000/svg">
<path d="M0 50C0.695621 47.929 1.35092 45.988 2.00621 44.0471C2.66151 42.1261 3.24623 40.1751 3.99226 38.2842C4.37535 37.3237 4.25438 36.6034 3.77047 35.7029C1.12912 30.8405 0.34277 25.628 1.26018 20.2053C2.03646 15.613 4.00234 11.551 7.178 8.09928C12.4103 2.42648 18.9431 -0.29487 26.6655 0.0252888C32.3212 0.255403 37.3216 2.30642 41.586 6.01825C45.5581 9.46996 48.1491 13.7621 49.3488 18.8646C50.3166 22.9766 50.2057 27.0687 49.0161 31.1207C47.5038 36.2532 44.6105 40.4853 40.3057 43.7069C34.3274 48.1891 27.6232 49.5798 20.3141 48.1691C18.1164 47.7489 16.0194 46.9685 14.0435 45.908C13.7209 45.7379 13.4487 45.6979 13.0958 45.8179C9.34551 47.0185 5.58513 48.2091 1.83483 49.3997C1.27026 49.5798 0.695621 49.7699 0 50ZM6.38157 43.7269C6.58319 43.6769 6.67393 43.6569 6.76466 43.6269C9.11364 42.8865 11.4626 42.1361 13.8217 41.4158C14.0435 41.3457 14.3459 41.4057 14.5576 41.5058C15.5759 42.006 16.5538 42.6063 17.6022 43.0466C21.9171 44.8575 26.363 45.1476 30.8594 43.907C36.2227 42.4162 40.3359 39.2447 43.1487 34.4523C45.5581 30.3503 46.3848 25.9181 45.6388 21.2558C44.6911 15.3229 41.6264 10.6605 36.5554 7.34891C32.1599 4.48749 27.3208 3.51702 22.1591 4.32742C17.7131 5.02776 13.9124 7.03876 10.7771 10.2603C8.08533 13.0217 6.28075 16.2833 5.4944 20.0352C4.37535 25.4078 5.20203 30.4904 8.20631 35.1226C8.8112 36.0531 8.79103 36.7635 8.4281 37.7139C7.69215 39.6649 7.07719 41.6559 6.38157 43.7269Z" fill="white"/>
<path d="M38.1583 31.3807C38.1281 33.3116 37.2107 34.7824 35.3557 35.7028C33.5309 36.6033 31.676 36.8334 29.7706 36.093C28.0567 35.4227 26.3227 34.7724 24.6693 33.962C22.4917 32.8914 20.7073 31.2906 19.0741 29.5198C17.2695 27.5588 15.7372 25.3777 14.477 23.0466C13.5797 21.3958 13.0353 19.6449 13.2269 17.7239C13.4285 15.6829 14.3862 14.0521 15.9993 12.8215C16.3219 12.5814 16.8058 12.4713 17.2191 12.4313C17.7535 12.3913 18.2878 12.4713 18.8221 12.5114C19.2657 12.5514 19.5076 12.8615 19.6589 13.2217C20.052 14.1822 20.4049 15.1427 20.7779 16.1131C21.0299 16.7635 21.2215 17.4438 21.5239 18.0741C21.8969 18.8545 21.6651 19.5048 21.1812 20.1051C20.7678 20.6154 20.3343 21.1056 19.8605 21.5458C19.4673 21.916 19.3967 22.2962 19.6589 22.7464C20.8182 24.7974 22.2296 26.6383 24.0947 28.1291C25.3246 29.1096 26.6856 29.8399 28.097 30.5203C28.5104 30.7204 28.9136 30.6903 29.2362 30.3202C29.9319 29.5298 30.6376 28.7494 31.3231 27.949C31.7667 27.4387 31.9885 27.3387 32.5833 27.6388C34.3072 28.4993 36.011 29.3897 37.7248 30.2801C38.1281 30.5003 38.2289 30.8604 38.1583 31.3807Z" fill="white"/>
</svg>
