<svg width="49" height="49" viewBox="0 0 49 49" fill="none" xmlns="http://www.w3.org/2000/svg">
<path d="M24.5 47C36.9264 47 47 36.9264 47 24.5C47 12.0736 36.9264 2 24.5 2C12.0736 2 2 12.0736 2 24.5C2 36.9264 12.0736 47 24.5 47Z" stroke="white" stroke-width="3" stroke-miterlimit="1" stroke-linecap="round" stroke-linejoin="round"/>
<path d="M32.3975 38H16.6025C13.5083 38 11 35.4917 11 32.3975V16.6025C11 13.5083 13.5083 11 16.6025 11H32.3975C35.4917 11 38 13.5083 38 16.6025V32.3975C38 35.4917 35.4917 38 32.3975 38Z" stroke="white" stroke-width="3" stroke-miterlimit="1" stroke-linecap="round" stroke-linejoin="round"/>
<path d="M24.5001 31.1594C28.1783 31.1594 31.1601 28.1776 31.1601 24.4994C31.1601 20.8211 28.1783 17.8394 24.5001 17.8394C20.8219 17.8394 17.8401 20.8211 17.8401 24.4994C17.8401 28.1776 20.8219 31.1594 24.5001 31.1594Z" stroke="white" stroke-width="3" stroke-miterlimit="1" stroke-linecap="round" stroke-linejoin="round"/>
<path d="M32.3301 18.7847C33.4982 18.7847 34.4451 17.8378 34.4451 16.6697C34.4451 15.5016 33.4982 14.5547 32.3301 14.5547C31.162 14.5547 30.2151 15.5016 30.2151 16.6697C30.2151 17.8378 31.162 18.7847 32.3301 18.7847Z" fill="white"/>
</svg>
